<?xml version="1.0" encoding="UTF-8"?><svg id="Layer_1" xmlns="http://www.w3.org/2000/svg" viewBox="0 0 576.78 152.32"><defs><style>.cls-1{fill:#ed1b2f;}.cls-2{fill:#231f20;}.cls-3{fill:#808285;}</style></defs><path class="cls-3" d="M39.3,144.25s2.82,4.79,5.63,6.42c2.81,1.61,8.36,1.65,8.36,1.65h78.62s-31.57-1-73.42-25.16C16.64,103,0,76.16,0,76.16l39.3,68.09Z"/><path class="cls-2" d="M171.23,84.24s2.74-4.84,2.74-8.08c0-3.24-2.74-8.08-2.74-8.08L131.92,0s14.92,27.83,14.92,76.16-14.92,76.16-14.92,76.16l39.31-68.08Z"/><path class="cls-1" d="M53.3,0s-5.56,.04-8.36,1.66c-2.81,1.63-5.63,6.42-5.63,6.42L0,76.16S16.64,49.32,58.49,25.16C100.34,1,131.91,0,131.91,0H53.3Z"/><polygon class="cls-1" points="229.63 43.11 197.15 43.11 197.15 50.3 209.14 50.3 209.13 80.93 217.64 80.93 217.64 50.3 229.63 50.3 229.63 43.11"/><path class="cls-1" d="M251.57,41.98c-11.06,0-20.04,8.97-20.04,20.03s8.97,20.04,20.04,20.04,20.04-8.98,20.04-20.04-8.98-20.03-20.04-20.03m9.82,26.1c-1.3,3.32-4.26,5.79-7.85,6.43-.64,.11-1.3,.17-1.97,.17s-1.33-.07-1.97-.17c-3.59-.63-6.55-3.11-7.85-6.43-.74-1.88-1.15-3.93-1.15-6.07s.41-4.19,1.15-6.07c1.3-3.31,4.26-5.79,7.85-6.42,.63-.11,1.3-.17,1.97-.17s1.34,.06,1.97,.17c3.59,.64,6.55,3.11,7.85,6.42,.74,1.88,1.14,3.93,1.14,6.07s-.41,4.19-1.14,6.07"/><polygon class="cls-1" points="271.75 43.11 281.76 43.11 291.12 59.37 300.48 43.11 310.49 43.11 295.37 66.93 295.37 80.92 286.87 80.92 286.87 66.93 271.75 43.11"/><path class="cls-1" d="M310.65,62.02c0-11.06,8.96-20.04,20.04-20.04s20.04,8.97,20.04,20.04-8.98,20.04-20.04,20.04-20.04-8.97-20.04-20.04m20.04,12.67c.67,0,1.33-.07,1.97-.17,3.59-.64,6.55-3.11,7.85-6.43,.74-1.88,1.14-3.93,1.14-6.07s-.4-4.19-1.14-6.07c-1.3-3.31-4.26-5.79-7.85-6.42-.64-.11-1.3-.17-1.97-.17s-1.33,.06-1.97,.17c-3.59,.64-6.56,3.11-7.86,6.42-.73,1.88-1.14,3.93-1.14,6.07s.41,4.19,1.14,6.07c1.3,3.31,4.26,5.79,7.86,6.43,.64,.11,1.29,.17,1.97,.17"/><path class="cls-1" d="M411.22,72.57h-16.09l-3.1,8.32h-9.46l15.31-37.81h10.59l15.32,37.81h-9.46l-3.11-8.32Zm-2.48-6.62l-5.57-14.93-5.58,14.93h11.14Z"/><polygon class="cls-1" points="385.07 43.11 352.58 43.11 352.58 50.3 364.57 50.3 364.57 80.93 373.08 80.93 373.08 50.3 385.07 50.3 385.07 43.11"/><polygon class="cls-3" points="456.65 98.18 463.72 98.18 463.72 116.23 468.74 116.23 468.73 98.18 475.8 98.18 475.8 93.94 456.65 93.94 456.65 98.18"/><polygon class="cls-3" points="488.74 98.18 495.81 98.18 495.81 116.23 500.82 116.23 500.82 98.18 507.89 98.18 507.89 93.94 488.74 93.94 488.74 98.18"/><polygon class="cls-3" points="535.41 98.18 542.48 98.18 542.48 116.23 547.5 116.23 547.5 98.18 554.56 98.18 554.56 93.94 535.41 93.94 535.41 98.18"/><polygon class="cls-3" points="424.11 107.4 414.55 93.94 409.53 93.94 409.53 116.23 414.55 116.23 414.55 102.78 424.11 116.23 429.13 116.23 429.13 93.94 424.11 93.94 424.11 107.4"/><rect class="cls-3" x="399.26" y="93.95" width="5.02" height="22.29"/><rect class="cls-3" x="479.76" y="93.95" width="5.02" height="22.29"/><polygon class="cls-3" points="563.54 112 563.54 106.98 574.77 106.98 574.77 102.75 563.54 102.75 563.54 98.18 576.56 98.18 576.56 93.94 558.53 93.94 558.53 93.94 558.53 116.23 558.53 116.23 576.78 116.23 576.78 112 563.54 112"/><path class="cls-3" d="M526.44,106.94c0,3.85-1.26,5.62-4.78,5.62s-4.79-1.77-4.79-5.62v-13h-5.01v14.84c0,4.95,4.3,8.12,9.8,8.12s9.8-3.17,9.8-8.12v-14.84h-5.02v13Z"/><path class="cls-3" d="M443.51,102.8c-2.74-.44-3.95-1.39-3.95-2.75,0-1.71,1.53-2.43,3.95-2.43s3.95,.57,3.95,2.88h5.34c0-5.05-4.1-7.22-9.29-7.22s-9.3,2.17-9.3,7.22c0,4.07,4.38,5.56,9.3,6.37,3.91,.64,4.62,1.75,4.62,2.81,0,2.61-2.21,2.87-4.62,2.87s-4.62-.72-4.62-3.32h-5.35c0,5.65,4.77,7.67,9.98,7.67s9.97-2.02,9.97-7.67c0-4.32-5.14-5.66-9.97-6.44"/><polygon class="cls-2" points="226.13 106.98 237.36 106.98 237.36 102.75 226.13 102.75 226.13 98.18 239.15 98.18 239.15 93.95 221.12 93.95 221.11 93.95 221.11 116.23 221.12 116.23 239.37 116.23 239.37 112 226.13 112 226.13 106.98"/><polygon class="cls-2" points="272.26 106.98 283.48 106.98 283.48 102.75 272.26 102.75 272.26 98.18 285.27 98.18 285.27 93.95 267.24 93.95 267.24 116.23 285.5 116.23 285.5 112 272.26 112 272.26 106.98"/><polygon class="cls-2" points="379.65 93.94 379.65 102.75 370.08 102.75 370.08 93.94 365.07 93.94 365.07 102.75 365.07 106.98 365.07 116.23 370.08 116.23 370.08 106.98 379.65 106.98 379.65 116.23 384.67 116.23 384.67 106.98 384.67 102.75 384.67 93.94 379.65 93.94"/><path class="cls-2" d="M216.07,100.58c0-4.1-2.17-6.63-7.84-6.63h-11.08v22.29h5.01v-9.03h3.88l5.48,9.03h6.02l-5.75-9.47c3.04-.9,4.28-3.09,4.28-6.19m-7.39,2.4h-6.52v-4.79h6.52c.82,0,2.38,.58,2.38,2.4s-1.56,2.4-2.38,2.4"/><path class="cls-2" d="M334.65,100.58c0-4.1-2.17-6.63-7.84-6.63h-11.08v22.29h5.01v-9.03h3.88l5.47,9.03h6.02l-5.75-9.47c3.04-.9,4.28-3.09,4.28-6.19m-7.39,2.4h-6.52v-4.79h6.52c.82,0,2.37,.58,2.37,2.4s-1.56,2.4-2.37,2.4"/><path class="cls-2" d="M348.83,97.73c.38-.07,.77-.1,1.16-.1s.78,.04,1.16,.1c1.98,.35,3.63,1.66,4.46,3.43h5.51c-1.62-4.59-5.99-7.88-11.13-7.88-6.53,0-11.81,5.29-11.81,11.81s5.29,11.82,11.81,11.82c5.14,0,9.5-3.3,11.13-7.88h-5.51c-.82,1.77-2.47,3.08-4.46,3.43-.38,.07-.77,.1-1.16,.1s-.78-.04-1.16-.1c-2.11-.37-3.86-1.83-4.63-3.79-.43-1.11-.68-2.32-.68-3.58s.25-2.47,.68-3.58c.77-1.95,2.51-3.42,4.63-3.79"/><path class="cls-2" d="M252.81,102.8c-2.74-.44-3.95-1.39-3.95-2.75,0-1.71,1.53-2.43,3.95-2.43s3.95,.57,3.95,2.88h5.35c0-5.05-4.1-7.22-9.3-7.22s-9.3,2.17-9.3,7.22c0,4.07,4.37,5.56,9.3,6.37,3.92,.64,4.62,1.75,4.62,2.81,0,2.61-2.21,2.87-4.62,2.87s-4.62-.72-4.62-3.32h-5.34c0,5.65,4.76,7.67,9.97,7.67s9.97-2.02,9.97-7.67c0-4.32-5.13-5.66-9.97-6.44"/><path class="cls-2" d="M303.44,93.94h-6.24l-9.02,22.28h5.57l1.82-4.9h9.49l1.83,4.9h5.58l-9.03-22.28Zm-6.4,13.48l3.29-8.8,3.28,8.8h-6.57Z"/></svg>