<svg xmlns="http://www.w3.org/2000/svg" width="240.742" height="75.689" viewBox="0 0 240.742 75.689"><g transform="translate(37 90)"><g transform="translate(-37 -90)"><path d="M32.746,75.39l-8.63-8.574v-8.8H12.809L4.18,49.445V13.481H0V0H21.784V13.481H17.6V44.538h6.512V30.861h-4.17V17.371H41.721v13.49H37.55V44.538h6.363V13.481h-4.18V0H61.517V13.481h-4.17V49.445l-8.63,8.574H37.55v3.89H63.859V30.861H59.68V17.371H81.464v13.49h-4.18V66.816l-8.63,8.574Z" fill="#be0000"/><g transform="translate(74.168 72.004)"><path d="M81.319,77.18h0a1.806,1.806,0,1,0,.009,0Zm0,3.387a1.556,1.556,0,0,1-.009-3.107h0a1.556,1.556,0,0,1,0,3.107Z" transform="translate(-79.5 -77.18)" fill="#be0000"/><path d="M81.728,79.132v-.019a.51.51,0,0,0,.4-.494.477.477,0,0,0-.187-.42,1.042,1.042,0,0,0-.634-.159,4.527,4.527,0,0,0-.578.047v2.052h.327v-.886h.224a.382.382,0,0,1,.438.354,1.468,1.468,0,0,0,.14.522H82.2a1.754,1.754,0,0,1-.131-.5C82.036,79.327,81.915,79.16,81.728,79.132ZM81.28,79h-.233v-.69c.056,0,.131-.019.233-.019.364,0,.494.177.494.355,0,.252-.224.345-.494.345Z" transform="translate(-79.582 -77.238)" fill="#be0000"/></g></g><g transform="translate(-38 -103)"><path d="M98.336,42.824c0,3.157.634,4.477,1.691,5.349a4.012,4.012,0,0,0,2.721.885,4.258,4.258,0,0,0,3-1.175c1.189-1.2,1.255-3.157,1.255-5.389V39.773c0-3.3,0-3.909-.04-4.609-.04-.74-.225-1.083-.938-1.241a4.517,4.517,0,0,0-.779-.066c-.238,0-.37-.04-.37-.2s.158-.2.462-.2c1.109,0,2.47.066,2.5.066.264,0,1.625-.066,2.483-.066.3,0,.449.04.449.2s-.132.2-.4.2a3.7,3.7,0,0,0-.634.066c-.581.106-.766.475-.806,1.241-.04.7-.04,1.308-.04,4.609V42.1c0,2.417-.238,4.979-2.06,6.538a6.5,6.5,0,0,1-4.517,1.558A7.012,7.012,0,0,1,97.491,48.7c-1.109-1-1.928-2.6-1.928-5.758v-3.17c0-3.3,0-3.909-.04-4.609-.04-.74-.211-1.083-.938-1.242a4.76,4.76,0,0,0-.845-.066c-.238,0-.37-.04-.37-.2s.158-.2.475-.2c1.149,0,2.523.066,3.17.066.528,0,1.889-.066,2.668-.066.33,0,.475.04.475.2s-.132.2-.343.2a3.7,3.7,0,0,0-.634.066c-.581.106-.766.475-.806,1.242-.04.7-.04,1.308-.04,4.609v3.038Z" transform="translate(0 0.083)" fill="#fff"/><path d="M109.4,33.94c0-.436.066-.74.277-.74.238,0,.436.277.806.674.264.277,3.566,3.83,6.736,6.974,1.479,1.479,4.517,4.715,4.887,5.058l-.211-9.866c-.026-1.321-.211-1.743-.74-1.955A3.5,3.5,0,0,0,120,33.953c-.264,0-.343-.066-.343-.2,0-.172.238-.2.568-.2,1.136,0,2.166.066,2.628.066.238,0,1.07-.066,2.126-.066.277,0,.5.026.5.2q0,.2-.4.2a2.292,2.292,0,0,0-.647.066c-.608.172-.779.634-.806,1.849-.092,4.583-.158,9.126-.238,13.709,0,.475-.092.674-.277.674-.238,0-.5-.238-.74-.475-1.374-1.308-4.147-4.147-6.406-6.392-2.364-2.351-4.847-5.124-5.23-5.534l.238,9.192c.04,1.691.33,2.258.766,2.417a3.422,3.422,0,0,0,1.136.158c.238,0,.37.04.37.172,0,.172-.2.211-.5.211-1.413,0-2.285-.066-2.694-.066-.2,0-1.215.066-2.351.066-.277,0-.475-.026-.475-.211,0-.132.132-.172.343-.172a4.253,4.253,0,0,0,.977-.106c.568-.172.647-.806.674-2.694.066-4.609.158-9.972.2-12.864Z" transform="translate(4.446)" fill="#fff"/><path d="M124.932,39.783c0-3.3,0-3.909-.04-4.609-.04-.74-.264-1.109-.74-1.215a3,3,0,0,0-.779-.092c-.225,0-.343-.04-.343-.225,0-.132.172-.172.515-.172.819,0,2.192.066,2.826.066.542,0,1.823-.066,2.655-.066.277,0,.462.04.462.172,0,.172-.132.225-.343.225a3.982,3.982,0,0,0-.647.066c-.581.106-.766.475-.806,1.241-.04.7-.04,1.308-.04,4.609v3.83c0,2.1,0,3.817.092,4.755.066.581.225.977.872,1.07a9.918,9.918,0,0,0,1.109.092c.238,0,.343.066.343.172,0,.158-.172.211-.409.211-1.44,0-2.8-.066-3.394-.066-.5,0-1.875.066-2.734.066-.277,0-.436-.066-.436-.211,0-.106.092-.172.343-.172a2.987,2.987,0,0,0,.779-.092c.436-.092.568-.462.634-1.083.106-.911.106-2.628.106-4.741v-3.83Z" transform="translate(9.513 0.087)" fill="#fff"/><path d="M131.72,35.61c-.5-1.189-.872-1.44-1.651-1.651a3.172,3.172,0,0,0-.845-.092c-.2,0-.264-.066-.264-.2,0-.172.238-.2.568-.2,1.149,0,2.391.066,3.143.066.542,0,1.585-.066,2.668-.066.264,0,.5.04.5.2s-.132.2-.33.2a1.534,1.534,0,0,0-.845.158.528.528,0,0,0-.211.449,6.716,6.716,0,0,0,.5,1.677c1.2,3.13,2.655,6.974,3.777,9.972.938-2.391,3.8-9.5,4.319-10.923a2.734,2.734,0,0,0,.2-.806.424.424,0,0,0-.277-.409,2.724,2.724,0,0,0-.872-.106c-.2,0-.37-.026-.37-.172,0-.172.2-.225.608-.225,1.083,0,1.994.066,2.285.066.37,0,1.387-.066,2.047-.066.277,0,.462.04.462.2s-.132.2-.343.2a1.9,1.9,0,0,0-1.07.264c-.277.2-.608.568-1.189,1.955-.845,2.047-1.44,3.209-2.6,5.891-1.387,3.17-2.417,5.534-2.892,6.63-.568,1.255-.7,1.611-1,1.611-.277,0-.409-.3-.819-1.321l-5.468-13.273Z" transform="translate(11.415 0.087)" fill="#fff"/><path d="M145.5,39.828c0-3.3,0-3.909-.04-4.609-.04-.74-.225-1.083-.938-1.242a4.761,4.761,0,0,0-.845-.066c-.238,0-.37-.04-.37-.2s.158-.2.475-.2c1,0,1.994.066,3.13.066.7,0,5.019,0,5.428-.026a8.712,8.712,0,0,0,.938-.132,1.656,1.656,0,0,1,.343-.092c.106,0,.132.092.132.2,0,.158-.106.409-.172,1.413-.026.225-.066,1.175-.106,1.44-.026.106-.066.238-.211.238s-.2-.132-.2-.4a2.271,2.271,0,0,0-.132-.7c-.158-.4-.37-.647-1.453-.779-.37-.04-2.655-.092-3.077-.092-.106,0-.158.066-.158.225V40.37c0,.158.026.238.158.238.475,0,2.972,0,3.474-.04a1.48,1.48,0,0,0,1.043-.33c.158-.172.238-.277.343-.277s.145.04.145.172-.092.475-.172,1.585c-.026.436-.092,1.308-.092,1.453,0,.172,0,.409-.2.409-.158,0-.2-.238-.2-.343a4.881,4.881,0,0,0-.092-.634c-.106-.436-.409-.766-1.215-.845-.409-.04-2.562-.066-3.091-.066-.106,0-.132.092-.132.211v1.717c0,.74-.026,2.734,0,3.368.04,1.506.4,1.823,2.6,1.823a5.469,5.469,0,0,0,2.047-.264c.568-.264.819-.713.977-1.611.04-.238.092-.33.238-.33.172,0,.172.172.172.4a17.554,17.554,0,0,1-.277,2.417c-.158.568-.343.568-1.175.568-1.928,0-3.843-.132-6.023-.132-.872,0-1.757.066-2.734.066-.277,0-.436-.066-.436-.211,0-.106.092-.172.343-.172a2.988,2.988,0,0,0,.779-.092c.436-.092.542-.568.634-1.2.106-.911.106-2.628.106-4.623v-3.83Z" transform="translate(16.018 0.042)" fill="#fff"/><path d="M155.5,39.783c0-3.3,0-3.909-.04-4.609-.04-.74-.225-1.083-.938-1.241a4.76,4.76,0,0,0-.845-.066c-.238,0-.37-.04-.37-.2s.158-.2.475-.2c1.149,0,2.523.066,2.972.066.74,0,2.391-.066,3.064-.066a6.944,6.944,0,0,1,4,.938,3.756,3.756,0,0,1,1.479,2.972c0,1.611-.647,3.064-2.853,4.847,1.928,2.43,3.434,4.385,4.715,5.732a4.341,4.341,0,0,0,2.417,1.479,3.837,3.837,0,0,0,.608.066c.172,0,.264.066.264.172,0,.172-.158.211-.409.211h-2.126a4.44,4.44,0,0,1-2.325-.409,10.4,10.4,0,0,1-2.972-3.2c-.872-1.189-1.862-2.668-2.153-3a.453.453,0,0,0-.4-.158l-1.823-.04c-.106,0-.172.04-.172.172v.3c0,2.021,0,3.738.106,4.649.066.634.2,1.109.845,1.2.33.04.806.092,1.07.092.172,0,.264.066.264.172,0,.158-.158.211-.436.211-1.255,0-2.866-.066-3.2-.066-.409,0-1.783.066-2.655.066-.277,0-.436-.066-.436-.211,0-.106.092-.172.343-.172a2.987,2.987,0,0,0,.779-.092c.436-.092.542-.568.634-1.2.106-.911.106-2.628.106-4.623v-3.83Zm2.562,1.717c0,.238.04.33.2.4a5.492,5.492,0,0,0,1.651.211,2.211,2.211,0,0,0,1.545-.37,3.843,3.843,0,0,0,1.281-3.262c0-3.077-2.047-3.975-3.328-3.975a4.6,4.6,0,0,0-1.149.092c-.158.04-.2.132-.2.3Z" transform="translate(19.225 0.087)" fill="#fff"/><path d="M166.739,49.72c-.343-.158-.409-.264-.409-.74,0-1.189.092-2.5.106-2.84s.092-.568.264-.568c.2,0,.225.2.225.37a4.817,4.817,0,0,0,.2,1.109,2.983,2.983,0,0,0,3.1,2.192,2.633,2.633,0,0,0,2.906-2.483c0-1.07-.33-2.06-2.126-3.474l-1-.779c-2.391-1.875-3.209-3.394-3.209-5.151,0-2.391,1.994-4.108,5.019-4.108a12.582,12.582,0,0,1,1.994.172c.37.066.647.132.885.2.2.04.3.106.3.264,0,.277-.092.911-.092,2.6,0,.475-.066.647-.238.647s-.211-.132-.211-.4a2.544,2.544,0,0,0-.568-1.426,2.757,2.757,0,0,0-2.364-1.07,2.289,2.289,0,0,0-2.589,2.232c0,1,.5,1.757,2.3,3.13l.608.462c2.628,1.981,3.566,3.474,3.566,5.534a4.364,4.364,0,0,1-2.047,3.777,6.222,6.222,0,0,1-3.46.885,7.6,7.6,0,0,1-3.17-.568Z" transform="translate(23.402 0.016)" fill="#fff"/><path d="M176.962,39.783c0-3.3,0-3.909-.04-4.609-.04-.74-.264-1.109-.74-1.215a3,3,0,0,0-.779-.092c-.225,0-.343-.04-.343-.225,0-.132.172-.172.515-.172.819,0,2.192.066,2.826.066.542,0,1.823-.066,2.655-.066.277,0,.462.04.462.172,0,.172-.132.225-.343.225a3.983,3.983,0,0,0-.647.066c-.581.106-.766.475-.806,1.241-.04.7-.04,1.308-.04,4.609v3.83c0,2.1,0,3.817.092,4.755.066.581.225.977.872,1.07a9.918,9.918,0,0,0,1.109.092c.238,0,.343.066.343.172,0,.158-.172.211-.409.211-1.44,0-2.8-.066-3.394-.066-.5,0-1.875.066-2.734.066-.277,0-.436-.066-.436-.211,0-.106.092-.172.343-.172a2.987,2.987,0,0,0,.779-.092c.436-.092.568-.462.634-1.083.106-.911.106-2.628.106-4.741v-3.83Z" transform="translate(26.202 0.087)" fill="#fff"/><path d="M190.235,43.674c0,1.994,0,3.711.106,4.649.066.608.2,1.083.845,1.175a9.918,9.918,0,0,0,1.109.092c.238,0,.343.066.343.172,0,.158-.172.211-.409.211-1.426,0-2.8-.066-3.408-.066-.5,0-1.875.066-2.734.066-.277,0-.436-.066-.436-.211,0-.106.092-.172.343-.172a2.987,2.987,0,0,0,.779-.092c.436-.092.568-.568.634-1.2.106-.911.106-2.628.106-4.623v-8.9c-.819.026-2.166.066-3.236.092-1.255.04-1.783.158-2.113.634a2.273,2.273,0,0,0-.37.766c-.04.172-.106.264-.238.264-.158,0-.2-.106-.2-.343,0-.343.409-2.325.449-2.5.066-.277.132-.409.264-.409a5.893,5.893,0,0,0,.938.264c.634.066,1.453.106,2.166.106h8.6a10.816,10.816,0,0,0,1.492-.106,5.172,5.172,0,0,1,.581-.106c.158,0,.172.132.172.449,0,.462-.066,1.955-.066,2.523-.026.225-.066.343-.2.343-.172,0-.225-.106-.238-.436,0-.066-.026-.172-.026-.238-.04-.568-.634-1.175-2.562-1.215-.568-.026-1.453-.04-2.734-.066v8.9Z" transform="translate(28.222 0.026)" fill="#fff"/><path d="M200.023,44.284a4.682,4.682,0,0,0-.5-2.285c-.145-.343-3.064-5.124-3.817-6.26a5.284,5.284,0,0,0-1.492-1.585,2.07,2.07,0,0,0-.911-.277c-.172,0-.33-.04-.33-.2,0-.132.158-.2.409-.2.4,0,2.021.066,2.734.066.462,0,1.347-.066,2.324-.066.225,0,.33.066.33.2s-.158.158-.475.238a.394.394,0,0,0-.3.4,1.926,1.926,0,0,0,.264.74c.3.647,3.341,5.891,3.7,6.5.225-.515,2.958-5.3,3.262-5.97a2.916,2.916,0,0,0,.3-1.123.514.514,0,0,0-.462-.542c-.2-.04-.4-.092-.4-.211,0-.158.106-.2.37-.2.713,0,1.413.066,2.047.066.475,0,1.915-.066,2.325-.066.238,0,.4.04.4.172,0,.158-.172.225-.409.225a2.31,2.31,0,0,0-.951.264,3.073,3.073,0,0,0-1.175,1.07,68.29,68.29,0,0,0-4.147,6.907,5.137,5.137,0,0,0-.33,2.179v1.783c0,.343,0,1.255.066,2.166.04.634.238,1.109.885,1.2a9.982,9.982,0,0,0,1.083.092c.238,0,.343.066.343.172,0,.158-.172.211-.462.211-1.374,0-2.734-.066-3.328-.066-.542,0-1.915.066-2.721.066-.3,0-.475-.04-.475-.211,0-.106.106-.172.343-.172a3.032,3.032,0,0,0,.766-.092c.436-.092.634-.568.674-1.2.066-.911.066-1.823.066-2.166V44.323Z" transform="translate(31.946 0.09)" fill="#fff"/></g><g transform="translate(-33 -96)"><path d="M115.875,66.329c0,5.151,1.028,7.312,2.767,8.734a6.532,6.532,0,0,0,4.44,1.449,6.947,6.947,0,0,0,4.9-1.923c1.95-1.95,2.055-5.151,2.055-8.8v-4.44c0-5.4,0-6.389-.066-7.522-.066-1.212-.356-1.778-1.528-2.029a7.364,7.364,0,0,0-1.278-.105c-.4,0-.606-.066-.606-.316s.25-.316.751-.316c1.8,0,4.044.105,4.084.105.422,0,2.661-.105,4.044-.105.5,0,.751.066.751.316s-.211.316-.632.316a5.668,5.668,0,0,0-1.028.105c-.962.171-1.238.777-1.317,2.029-.066,1.133-.066,2.134-.066,7.522v3.794c0,3.939-.4,8.128-3.373,10.684a10.61,10.61,0,0,1-7.391,2.556c-1.884,0-5.283-.105-7.878-2.45-1.818-1.634-3.162-4.255-3.162-9.406V61.349c0-5.4,0-6.389-.066-7.522-.066-1.212-.356-1.778-1.528-2.029a7.771,7.771,0,0,0-1.383-.105c-.4,0-.606-.066-.606-.316s.25-.316.777-.316c1.884,0,4.123.105,5.177.105.856,0,3.083-.105,4.361-.105.527,0,.777.066.777.316s-.211.316-.566.316a5.669,5.669,0,0,0-1.028.105c-.962.171-1.238.777-1.317,2.029-.066,1.133-.066,2.134-.066,7.522v4.967Z" transform="translate(0 0.19)" fill="#fff"/><path d="M144.795,67.724c0,3.267,0,6.073.171,7.6.105.988.316,1.778,1.383,1.923a16.137,16.137,0,0,0,1.8.145c.4,0,.566.105.566.29,0,.25-.29.356-.672.356-2.345,0-4.585-.105-5.573-.105-.817,0-3.056.105-4.479.105-.461,0-.711-.105-.711-.356,0-.171.145-.29.566-.29a5.336,5.336,0,0,0,1.278-.145c.711-.145.922-.922,1.028-1.95.171-1.489.171-4.295.171-7.562V53.18c-1.344.04-3.544.105-5.283.145-2.055.066-2.911.25-3.438,1.028A4.442,4.442,0,0,0,131,55.591c-.066.29-.171.422-.4.422-.25,0-.316-.171-.316-.566,0-.566.672-3.794.751-4.084.105-.461.211-.672.422-.672a8.226,8.226,0,0,0,1.528.422c1.028.105,2.384.171,3.557.171H150.6a18.025,18.025,0,0,0,2.45-.171,7.862,7.862,0,0,1,.962-.171c.25,0,.29.211.29.751,0,.751-.105,3.188-.105,4.123-.04.356-.105.566-.316.566-.29,0-.356-.171-.4-.711,0-.105-.04-.277-.04-.4-.066-.922-1.028-1.923-4.189-1.989-.922-.04-2.371-.066-4.466-.105V67.737Z" transform="translate(7.151 0.073)" fill="#fff"/><path d="M155.915,68.824c-.171,0-.25.066-.316.277l-1.923,5.072a6.8,6.8,0,0,0-.527,2.161c0,.646.316,1.107,1.423,1.107h.527c.422,0,.527.066.527.29,0,.277-.211.356-.606.356-1.133,0-2.661-.105-3.768-.105-.4,0-2.345.105-4.189.105-.461,0-.672-.066-.672-.356,0-.211.211-.29.5-.29.316,0,.751-.04,1.028-.066,1.634-.211,2.305-1.423,3.017-3.2l8.906-22.29c.422-1.028.672-1.423.988-1.423.277,0,.527.316.883,1.133.856,1.95,6.534,16.441,8.8,21.829,1.344,3.188,2.371,3.689,3.122,3.873a7.867,7.867,0,0,0,1.489.145c.29,0,.461.066.461.29,0,.277-.316.356-1.634.356s-4.123,0-6.956-.066c-.646-.04-.817-.066-.817-.277,0-.171.145-.29.5-.316a.572.572,0,0,0,.316-.817l-2.846-7.522a.342.342,0,0,0-.356-.25h-7.918Zm7.232-1.778c.171,0,.211-.105.171-.211l-3.2-8.774c-.105-.316-.25-.422-.4,0L156.455,66.8c-.04.145,0,.25.145.25h6.534Z" transform="translate(12.261)" fill="#fff"/><path d="M190.589,62.35c.105,0,.211-.066.211-.25v-.751c0-5.4,0-6.389-.066-7.522-.066-1.212-.356-1.778-1.528-2.029a7.665,7.665,0,0,0-1.383-.105c-.4,0-.606-.066-.606-.316s.25-.316.738-.316c1.923,0,4.15.105,5.111.105.856,0,3.083-.105,4.466-.105.5,0,.751.066.751.316s-.211.316-.632.316a6.77,6.77,0,0,0-1.028.105c-.962.171-1.238.777-1.317,2.029-.066,1.133-.066,2.134-.066,7.522v6.244c0,3.267,0,6.073.171,7.6.105.988.316,1.778,1.383,1.923a16.137,16.137,0,0,0,1.8.145c.4,0,.566.105.566.29,0,.25-.277.356-.711.356-2.305,0-4.545-.105-5.533-.105-.817,0-3.056.105-4.44.105-.5,0-.751-.105-.751-.356,0-.171.145-.29.566-.29a5.336,5.336,0,0,0,1.278-.145c.711-.145.883-.922,1.028-1.95.171-1.489.171-4.295.171-7.562V64.484a.2.2,0,0,0-.211-.211H177.007a.187.187,0,0,0-.211.211v3.122c0,3.267,0,6.073.171,7.6.105.988.316,1.778,1.383,1.923a16.124,16.124,0,0,0,1.818.145c.4,0,.566.105.566.29,0,.25-.29.356-.711.356-2.305,0-4.545-.105-5.546-.105-.817,0-3.056.105-4.466.105-.461,0-.711-.105-.711-.356,0-.171.145-.29.566-.29a5.336,5.336,0,0,0,1.278-.145c.711-.145.883-.922,1.028-1.95.171-1.489.171-4.295.171-7.562V61.375c0-5.4,0-6.389-.066-7.522-.066-1.212-.356-1.778-1.528-2.029a7.771,7.771,0,0,0-1.383-.105c-.4,0-.606-.066-.606-.316s.25-.316.751-.316c1.923,0,4.15.105,5.111.105.856,0,3.1-.105,4.479-.105.5,0,.751.066.751.316s-.316.316-.646.316c-.277,0-.738.04-1.028.066-.962.145-1.238.817-1.317,2.055-.066,1.133-.066,2.134-.066,7.522v.751a.22.22,0,0,0,.211.25h13.556Z" transform="translate(19.361 0.19)" fill="#fff"/></g><g transform="translate(-38.28 -100.59)"><path d="M100.15,60.04a4.272,4.272,0,0,1-1.69,3.42,3.133,3.133,0,0,1-1.83.53,1.777,1.777,0,0,1-1.98-1.96,4.388,4.388,0,0,1,1.73-3.43,3.085,3.085,0,0,1,1.77-.57,1.807,1.807,0,0,1,2,2.01Zm-3.24-.81A6.447,6.447,0,0,0,95.9,62.4c0,.85.4,1.13.84,1.13a1.324,1.324,0,0,0,1.03-.56,6.533,6.533,0,0,0,1.14-3.43c-.01-.6-.23-1.08-.78-1.08a1.5,1.5,0,0,0-1.22.77Z" fill="#fff"/><path d="M102.43,58.26a5.275,5.275,0,0,1,1.27-2.51,2.411,2.411,0,0,1,1.69-.7c.75,0,1.25.39,1.25.98a.668.668,0,0,1-.68.7c-.3,0-.49-.14-.46-.39a1.987,1.987,0,0,0,.05-.38c.01-.27-.08-.47-.4-.47-.38,0-.66.42-.88.99a14.739,14.739,0,0,0-.52,1.78h1.3l-.17.46-1.27.09c-.51,2.08-1.09,4.32-1.48,5.34a4.507,4.507,0,0,1-1.91,2.39,2.193,2.193,0,0,1-1.22.32.932.932,0,0,1-.98-.78.817.817,0,0,1,.52-.7c.21-.1.35-.03.47.17.25.38.51.61.78.61.44,0,.69-.42.96-1.3.31-.95,1-3.71,1.53-6.06l-.99-.09.18-.46h.95Z" fill="#fff"/></g><g transform="translate(-36.005 -107)"><path d="M106.318,27.43c0,1.462,0,2.724.08,3.415.053.452.146.8.625.864a8,8,0,0,0,.811.066c.173,0,.252.053.252.133,0,.106-.133.159-.306.159-1.05,0-2.06-.053-2.5-.053-.372,0-1.369.053-2.006.053q-.319,0-.319-.159c0-.08.066-.133.252-.133a2.172,2.172,0,0,0,.571-.066c.319-.066.412-.412.465-.877.08-.664.08-1.927.08-3.388V20.906c-.611.013-1.594.053-2.378.066-.93.027-1.3.106-1.541.465a1.67,1.67,0,0,0-.266.558c-.027.133-.08.186-.173.186s-.146-.08-.146-.252c0-.252.306-1.7.332-1.834.053-.213.093-.306.186-.306a3.64,3.64,0,0,0,.691.186,15.06,15.06,0,0,0,1.594.08h6.312a8.65,8.65,0,0,0,1.1-.08,3.091,3.091,0,0,1,.425-.08c.106,0,.133.093.133.332,0,.332-.053,1.435-.053,1.847-.013.159-.053.252-.146.252-.133,0-.159-.08-.173-.319,0-.053-.013-.133-.013-.173-.027-.412-.465-.864-1.887-.89-.412-.013-1.063-.027-2.006-.053V27.43Z" transform="translate(0)" fill="#fff"/><path d="M118.84,25.013s.093-.027.093-.106v-.332c0-2.418,0-2.87-.027-3.375-.027-.545-.159-.8-.691-.9a3.772,3.772,0,0,0-.625-.053c-.173,0-.266-.04-.266-.146s.106-.146.332-.146c.864,0,1.86.053,2.3.053.385,0,1.382-.053,2.006-.053.226,0,.332.027.332.146s-.093.146-.292.146a2.255,2.255,0,0,0-.465.053c-.425.08-.558.345-.585.9-.027.5-.027.957-.027,3.375v2.8c0,1.462,0,2.724.08,3.415.053.452.146.8.625.864a8,8,0,0,0,.811.066c.173,0,.252.053.252.133,0,.106-.133.159-.319.159-1.036,0-2.046-.053-2.485-.053-.372,0-1.369.053-1.993.053-.226,0-.332-.053-.332-.159,0-.08.066-.133.252-.133a2.172,2.172,0,0,0,.571-.066c.319-.066.4-.412.465-.877.08-.664.08-1.927.08-3.388V25.983s-.053-.093-.093-.093h-6.086s-.093.013-.093.093v1.408c0,1.462,0,2.724.08,3.415.053.452.146.8.625.864a8,8,0,0,0,.811.066c.173,0,.252.053.252.133,0,.106-.133.159-.319.159-1.036,0-2.046-.053-2.485-.053-.372,0-1.369.053-2.006.053q-.319,0-.319-.159c0-.08.066-.133.252-.133a2.172,2.172,0,0,0,.571-.066c.319-.066.4-.412.465-.877.08-.664.08-1.927.08-3.388V24.6c0-2.418,0-2.87-.027-3.375-.027-.545-.159-.8-.691-.9a3.772,3.772,0,0,0-.625-.053c-.173,0-.266-.04-.266-.146s.106-.146.332-.146c.864,0,1.86.053,2.3.053.385,0,1.382-.053,2.006-.053.226,0,.332.027.332.146s-.146.146-.292.146-.332.013-.465.027c-.425.066-.558.372-.585.93-.027.5-.027.957-.027,3.375v.332a.094.094,0,0,0,.093.106h6.086Z" transform="translate(3.038 0.053)" fill="#fff"/><path d="M122.2,24.594c0-2.418,0-2.87-.027-3.375-.027-.545-.159-.8-.691-.9a3.773,3.773,0,0,0-.625-.053c-.173,0-.266-.04-.266-.146s.106-.146.345-.146c.731,0,1.462.053,2.3.053.5,0,3.681,0,3.986-.013a6.8,6.8,0,0,0,.691-.093,1.77,1.77,0,0,1,.252-.066c.08,0,.093.066.093.146,0,.106-.08.306-.133,1.036-.013.159-.053.864-.08,1.05-.013.08-.053.173-.159.173s-.146-.093-.146-.279a1.5,1.5,0,0,0-.093-.5c-.106-.279-.266-.478-1.063-.571-.266-.027-1.94-.066-2.259-.066-.08,0-.106.053-.106.159v4.026c0,.106.013.173.106.173.345,0,2.179,0,2.551-.027a1.1,1.1,0,0,0,.771-.239c.106-.133.173-.213.252-.213s.106.027.106.133-.066.345-.133,1.169c-.013.319-.066.957-.066,1.063,0,.133,0,.306-.146.306-.106,0-.146-.173-.146-.252a2.29,2.29,0,0,0-.066-.465c-.08-.319-.306-.558-.89-.625-.306-.027-1.887-.053-2.259-.053-.08,0-.093.066-.093.159v1.262c0,.545-.013,2.006,0,2.471.027,1.1.292,1.342,1.913,1.342a4.167,4.167,0,0,0,1.5-.186c.412-.186.611-.532.718-1.183.027-.173.066-.239.173-.239.133,0,.133.133.133.292a12.363,12.363,0,0,1-.213,1.767c-.106.412-.252.412-.864.412-1.422,0-2.817-.093-4.411-.093-.638,0-1.289.053-2.006.053q-.319,0-.319-.159c0-.08.066-.133.252-.133a2.172,2.172,0,0,0,.571-.066c.319-.066.4-.412.465-.877.08-.664.08-1.927.08-3.388v-2.8Z" transform="translate(6.828 0.02)" fill="#fff"/></g></g></svg>